<mxfile host="app.diagrams.net" modified="2022-03-11T23:27:24.401Z" agent="5.0 (X11; Linux x86_64) AppleWebKit/537.36 (KHTML, like Gecko) Chrome/99.0.4844.51 Safari/537.36" etag="rEK_mQslazkILNAhFfLW" version="17.1.2" type="github">
  <diagram name="Page-1" id="5f0bae14-7c28-e335-631c-24af17079c00">
    <mxGraphModel dx="868" dy="1274" grid="1" gridSize="10" guides="1" tooltips="1" connect="1" arrows="1" fold="1" page="1" pageScale="1" pageWidth="1100" pageHeight="850" background="none" math="0" shadow="0">
      <root>
        <mxCell id="0" />
        <mxCell id="1" parent="0" />
        <mxCell id="U-ktRDvtVMJbWJF2N6Tt-1" value="Main" style="swimlane;fillColor=#E1D5E7;strokeColor=#E1D5E7;strokeWidth=2;" vertex="1" parent="1">
          <mxGeometry x="40" y="120" width="200" height="200" as="geometry" />
        </mxCell>
        <mxCell id="U-ktRDvtVMJbWJF2N6Tt-2" value="Client" style="swimlane;fillColor=#E1D5E7;strokeColor=#E1D5E7;strokeWidth=2;" vertex="1" parent="1">
          <mxGeometry x="280" y="240" width="200" height="200" as="geometry" />
        </mxCell>
        <mxCell id="U-ktRDvtVMJbWJF2N6Tt-3" value="Server" style="swimlane;fillColor=#E1D5E7;strokeColor=#E1D5E7;strokeWidth=2;" vertex="1" parent="1">
          <mxGeometry x="280" width="200" height="200" as="geometry" />
        </mxCell>
        <mxCell id="U-ktRDvtVMJbWJF2N6Tt-4" value="ServerModel" style="swimlane;fillColor=#E1D5E7;strokeColor=#E1D5E7;strokeWidth=2;" vertex="1" parent="1">
          <mxGeometry x="520" width="200" height="200" as="geometry" />
        </mxCell>
        <mxCell id="U-ktRDvtVMJbWJF2N6Tt-5" value="Main" style="swimlane;fillColor=#E1D5E7;strokeColor=#E1D5E7;strokeWidth=2;" vertex="1" parent="1">
          <mxGeometry x="520" y="240" width="200" height="200" as="geometry" />
        </mxCell>
      </root>
    </mxGraphModel>
  </diagram>
</mxfile>
